<?xml version="1.0" encoding="iso-8859-1"?>
<!-- Generator: Adobe Illustrator 21.0.0, SVG Export Plug-In . SVG Version: 6.00 Build 0)  -->
<svg xmlns="http://www.w3.org/2000/svg" xmlns:xlink="http://www.w3.org/1999/xlink" version="1.1" id="Capa_1" x="0px" y="0px" viewBox="0 0 512 512" style="enable-background:new 0 0 512 512;" xml:space="preserve" width="512" height="512">
<g>
	<path style="fill:#F57C7C;" d="M383.973,131.6c-4.878-3.61-19.776-12.584-21.698-5.836   c-20.573,72.237-62.156,110.011-67.679,120.759c-5.523,10.748,0.83,31.24,25.883,48.306s28.727,19.418,35.285,29.513   c6.558,10.095,41.379,10.89,41.086,4.762c-0.293-6.128-5.06-25.149,0.969-38.487c6.029-13.338-19.466-53.615-16.484-78.822   S388.851,135.21,383.973,131.6z"/>
	<path style="fill:#EF6161;" d="M381.338,211.796c2.982-25.207,7.513-76.586,2.635-80.196c-4.878-3.61-19.776-12.584-21.698-5.836   c-1.892,6.645-3.965,12.993-6.169,19.06c0.264,17.791-2.645,49.018-4.769,66.972c-2.982,25.207,22.512,65.483,16.484,78.821   c-6.029,13.337-1.262,32.359-0.969,38.487c0.026,0.542-0.235,1.027-0.715,1.459c12.553,3.789,30.928,3,30.715-1.459   c-0.292-6.128-5.06-25.149,0.969-38.487C403.85,277.279,378.355,237.002,381.338,211.796z"/>
	<rect x="7.5" y="7.5" style="fill:#FFC107;" width="497" height="70"/>
	<rect x="474.5" y="7.5" style="fill:#FFB300;" width="30" height="70"/>
	<rect x="7.5" y="354.5" style="fill:#CFD8DC;" width="497" height="30"/>
	<rect x="474.5" y="354.5" style="fill:#B0BEC5;" width="30" height="30"/>
	<rect x="20" y="384.5" style="fill:#B0BEC5;" width="472" height="120"/>
	<rect x="462" y="384.5" style="fill:#90A4AE;" width="30" height="120"/>
	<g>
		<rect x="24" y="77.5" style="fill:#90A4AE;" width="30" height="277"/>
		<rect x="458" y="77.5" style="fill:#90A4AE;" width="30" height="277"/>
	</g>
	<rect x="116" y="294.5" style="fill:#B0693C;" width="140" height="60"/>
	<rect x="226" y="294.5" style="fill:#8F5530;" width="30" height="60"/>
	<rect x="66" y="384.5" style="fill:#FFC107;" width="240" height="74"/>
	<path style="fill:#CFD8DC;" d="M199.974,282.784l42.426-42.426l-28.284-28.284l-70.711,70.711l0,0   C159.026,298.405,184.353,298.405,199.974,282.784z"/>
	<path style="fill:#B0BEC5;" d="M214.116,212.074l-15,15l4.3,4.299c4.962,4.962,4.962,13.007,0,17.969l-33.442,33.442   c-3.919,3.919-8.45,6.854-13.284,8.807c14.435,5.83,31.583,2.895,43.284-8.807l42.427-42.426L214.116,212.074z"/>
	<path d="M488,295.5c4.143,0,7.5-3.357,7.5-7.5V85h9c4.143,0,7.5-3.357,7.5-7.5v-70c0-4.143-3.357-7.5-7.5-7.5H7.5   C3.357,0,0,3.357,0,7.5v70C0,81.643,3.357,85,7.5,85h9v10.833c0,4.143,3.357,7.5,7.5,7.5s7.5-3.357,7.5-7.5V85h15v262h-15V127.833   c0-4.143-3.357-7.5-7.5-7.5s-7.5,3.357-7.5,7.5V347h-9c-4.143,0-7.5,3.357-7.5,7.5v30c0,4.143,3.357,7.5,7.5,7.5h5v112.5   c0,4.143,3.357,7.5,7.5,7.5h396c4.143,0,7.5-3.357,7.5-7.5s-3.357-7.5-7.5-7.5H27.5V392h31v66.5c0,4.143,3.357,7.5,7.5,7.5h240   c4.143,0,7.5-3.357,7.5-7.5V392h171v105h-36.75c-4.143,0-7.5,3.357-7.5,7.5s3.357,7.5,7.5,7.5H492c4.143,0,7.5-3.357,7.5-7.5V392h5   c4.143,0,7.5-3.357,7.5-7.5v-30c0-4.143-3.357-7.5-7.5-7.5h-9v-27.333c0-4.143-3.357-7.5-7.5-7.5s-7.5,3.357-7.5,7.5V347h-15V85h15   v203C480.5,292.143,483.857,295.5,488,295.5z M298.5,451h-225v-59h225V451z M497,362v15H15v-15H497z M214.117,222.68l17.677,17.677   L194.67,277.48c-10.845,10.848-27.518,12.409-40.04,4.687L214.117,222.68z M248.5,302v45h-125v-45H248.5z M263.5,347v-52.5   c0-4.143-3.357-7.5-7.5-7.5h-49.635l41.339-41.339c2.929-2.93,2.929-7.678,0-10.607l-22.98-22.98l34.024-34.024   c2.929-2.93,2.929-7.678,0-10.607c-2.93-2.928-7.678-2.928-10.607,0L138.102,277.48c-2.589,2.59-2.889,6.6-0.901,9.52H116   c-4.143,0-7.5,3.357-7.5,7.5V347h-47V85h301.415v6.81c0,2.665-2.169,4.834-4.834,4.834c-10.936,0-19.833,8.897-19.833,19.833v7.333   c0,7.789,4.513,14.544,11.062,17.787c-21.413,59.555-55.478,90.007-61.384,101.5c-3.972,7.73-3.478,18.079,1.355,28.394   c5.025,10.727,14.354,20.94,26.977,29.539c24.04,16.486,27.236,18.191,33.219,27.399c5.784,8.903,21.686,11.994,33.937,11.994   c5.218,0,9.776-0.562,12.604-1.474c8.054-2.597,8.408-8.465,8.325-10.201c-0.077-1.634-0.354-3.607-0.702-6.105   c-1.065-7.625-2.849-20.389,1.015-28.936c4.18-9.244-0.518-22.562-6.464-39.421c-5.029-14.258-10.729-30.419-9.405-41.608   c1.482-12.531,3.393-31.898,4.306-48.67c1.7-31.22-0.857-35.623-4.655-38.436c-0.001,0-0.001,0-0.002-0.001   c-3.938-2.914-17.492-12.184-26.538-9.104c-3.358,1.143-5.849,3.783-6.834,7.243c-0.284,0.998-0.573,1.989-0.865,2.973   c-0.596-0.804-0.949-1.798-0.949-2.874v-7.333c0-2.665,2.168-4.833,4.833-4.833c10.937,0,19.834-8.897,19.834-19.834V85H450.5v262   H263.5z M378.084,136.618c1.586,7.968-0.233,40.818-4.194,74.297c-1.733,14.652,4.583,32.56,10.155,48.359   c3.441,9.755,8.641,24.497,6.942,28.254c-5.25,11.614-3.868,25.464-2.136,37.666c-2.896,0.368-7.56,0.497-13.104-0.248   c-8.813-1.184-13.031-3.671-13.693-4.69c-7.427-11.432-11.869-14.27-37.352-31.624c-21.886-14.908-26.922-31.895-23.436-38.681   c4.528-8.816,45.964-47.607,67.166-118.517C371.063,132.42,374.901,134.461,378.084,136.618z M463.5,70V42.5   c0-4.143-3.357-7.5-7.5-7.5s-7.5,3.357-7.5,7.5V70h-35V42.5c0-4.143-3.357-7.5-7.5-7.5s-7.5,3.357-7.5,7.5V70h-35V42.5   c0-4.143-3.357-7.5-7.5-7.5s-7.5,3.357-7.5,7.5V70h-35V42.5c0-4.143-3.357-7.5-7.5-7.5s-7.5,3.357-7.5,7.5V70h-35V42.5   c0-4.143-3.357-7.5-7.5-7.5s-7.5,3.357-7.5,7.5V70h-35V42.5c0-4.143-3.357-7.5-7.5-7.5s-7.5,3.357-7.5,7.5V70h-35V42.5   c0-4.143-3.357-7.5-7.5-7.5s-7.5,3.357-7.5,7.5V70h-35V42.5c0-4.143-3.357-7.5-7.5-7.5s-7.5,3.357-7.5,7.5V70h-35V42.5   c0-4.143-3.357-7.5-7.5-7.5s-7.5,3.357-7.5,7.5V70H15V15h482v55H463.5z"/>
</g>















</svg>
